<svg width="25" height="24" fill="none" xmlns="http://www.w3.org/2000/svg"><circle cx="12.774" cy="12" r="12" fill="#0077B7"/><g clip-path="url(#clip0_1_1195)" fill="#fff"><path d="M18.578 17.035h.003v-3.976c0-1.944-.42-3.442-2.692-3.442-1.093 0-1.827.6-2.126 1.168h-.032v-.987h-2.155v7.236h2.244v-3.583c0-.943.179-1.855 1.347-1.855 1.151 0 1.169 1.076 1.169 1.916v3.523h2.242zM7.92 9.798h2.248v7.237H7.921V9.798zm1.124-3.605c-.718 0-1.301.583-1.301 1.302 0 .718.583 1.314 1.301 1.314.719 0 1.302-.596 1.302-1.314 0-.719-.584-1.302-1.302-1.302z"/></g><defs><clipPath id="clip0_1_1195"><path fill="#fff" transform="translate(7.743 6.193)" d="M0 0h10.839v10.839H0z"/></clipPath></defs></svg>