<svg width="25" height="24" fill="none" xmlns="http://www.w3.org/2000/svg"><rect x=".774" width="24" height="24" rx="12" fill="#38A7DE"/><path fill-rule="evenodd" clip-rule="evenodd" d="M7.742 15.292c.914.61 1.999.966 3.165.966 3.799 0 5.875-3.277 5.875-6.118 0-.093-.002-.185-.006-.277a4.29 4.29 0 001.03-1.113c-.37.171-.768.286-1.185.337.426-.264.753-.687.908-1.188a4.05 4.05 0 01-1.312.52 2.026 2.026 0 00-1.507-.677c-1.14 0-2.065.961-2.065 2.148 0 .17.019.333.054.49-1.716-.089-3.239-.945-4.256-2.245a2.21 2.21 0 00-.28 1.08c0 .746.364 1.405.919 1.79a1.981 1.981 0 01-.936-.269v.027c0 1.041.713 1.911 1.656 2.109a1.97 1.97 0 01-.932.036c.262.855 1.025 1.477 1.929 1.493a4.034 4.034 0 01-3.057.89z" fill="#fff"/></svg>